<mxfile host="app.diagrams.net" modified="2021-08-05T16:08:30.637Z" agent="5.0 (Windows NT 10.0; Win64; x64) AppleWebKit/537.36 (KHTML, like Gecko) Chrome/92.0.4515.131 Safari/537.36" etag="zdJIxJku7yRoqkvIzDzT" version="14.9.4" type="github" pages="2">
  <diagram id="kgpKYQtTHZ0yAKxKKP6v" name="FlowCreationUser">
    <mxGraphModel dx="1038" dy="547" grid="1" gridSize="10" guides="1" tooltips="1" connect="1" arrows="1" fold="1" page="1" pageScale="1" pageWidth="850" pageHeight="1100" math="0" shadow="0">
      <root>
        <mxCell id="0" />
        <mxCell id="1" parent="0" />
        <mxCell id="zNrFlMbsqUfdK7DRBu00-18" value="If user not exit" style="shape=umlFrame;whiteSpace=wrap;html=1;" vertex="1" parent="1">
          <mxGeometry x="10" y="170" width="770" height="80" as="geometry" />
        </mxCell>
        <mxCell id="3nuBFxr9cyL0pnOWT2aG-1" value="Cliente" style="shape=umlLifeline;perimeter=lifelinePerimeter;container=1;collapsible=0;recursiveResize=0;rounded=0;shadow=0;strokeWidth=1;" parent="1" vertex="1">
          <mxGeometry x="60" y="50" width="145" height="670" as="geometry" />
        </mxCell>
        <mxCell id="3nuBFxr9cyL0pnOWT2aG-2" value="" style="points=[];perimeter=orthogonalPerimeter;rounded=0;shadow=0;strokeWidth=1;" parent="3nuBFxr9cyL0pnOWT2aG-1" vertex="1">
          <mxGeometry x="67.5" y="70" width="10" height="550" as="geometry" />
        </mxCell>
        <mxCell id="3nuBFxr9cyL0pnOWT2aG-3" value="" style="verticalAlign=bottom;startArrow=oval;endArrow=block;startSize=8;shadow=0;strokeWidth=1;" parent="3nuBFxr9cyL0pnOWT2aG-1" target="3nuBFxr9cyL0pnOWT2aG-2" edge="1">
          <mxGeometry relative="1" as="geometry">
            <mxPoint x="-15" y="70" as="sourcePoint" />
          </mxGeometry>
        </mxCell>
        <mxCell id="zNrFlMbsqUfdK7DRBu00-33" style="edgeStyle=orthogonalEdgeStyle;rounded=0;orthogonalLoop=1;jettySize=auto;html=1;" edge="1" parent="1" source="3nuBFxr9cyL0pnOWT2aG-5" target="zNrFlMbsqUfdK7DRBu00-9">
          <mxGeometry relative="1" as="geometry">
            <Array as="points">
              <mxPoint x="450" y="500" />
              <mxPoint x="450" y="480" />
            </Array>
          </mxGeometry>
        </mxCell>
        <mxCell id="3nuBFxr9cyL0pnOWT2aG-5" value="Spring security" style="shape=umlLifeline;perimeter=lifelinePerimeter;container=1;collapsible=0;recursiveResize=0;rounded=0;shadow=0;strokeWidth=1;" parent="1" vertex="1">
          <mxGeometry x="280" y="50" width="140" height="670" as="geometry" />
        </mxCell>
        <mxCell id="3nuBFxr9cyL0pnOWT2aG-6" value="" style="points=[];perimeter=orthogonalPerimeter;rounded=0;shadow=0;strokeWidth=1;" parent="3nuBFxr9cyL0pnOWT2aG-5" vertex="1">
          <mxGeometry x="60" y="80" width="10" height="400" as="geometry" />
        </mxCell>
        <mxCell id="zNrFlMbsqUfdK7DRBu00-23" style="edgeStyle=orthogonalEdgeStyle;rounded=0;orthogonalLoop=1;jettySize=auto;html=1;" edge="1" parent="3nuBFxr9cyL0pnOWT2aG-5" target="3nuBFxr9cyL0pnOWT2aG-6">
          <mxGeometry relative="1" as="geometry">
            <mxPoint x="70" y="260" as="sourcePoint" />
            <Array as="points">
              <mxPoint x="90" y="252" />
              <mxPoint x="90" y="280" />
            </Array>
          </mxGeometry>
        </mxCell>
        <mxCell id="zNrFlMbsqUfdK7DRBu00-24" value="Validate credential and create token" style="edgeLabel;html=1;align=center;verticalAlign=middle;resizable=0;points=[];" vertex="1" connectable="0" parent="zNrFlMbsqUfdK7DRBu00-23">
          <mxGeometry x="0.3375" y="-1" relative="1" as="geometry">
            <mxPoint x="91" y="-8" as="offset" />
          </mxGeometry>
        </mxCell>
        <mxCell id="3nuBFxr9cyL0pnOWT2aG-8" value="post Authentication" style="verticalAlign=bottom;endArrow=block;entryX=0;entryY=0;shadow=0;strokeWidth=1;" parent="1" source="3nuBFxr9cyL0pnOWT2aG-2" target="3nuBFxr9cyL0pnOWT2aG-6" edge="1">
          <mxGeometry relative="1" as="geometry">
            <mxPoint x="280" y="160" as="sourcePoint" />
          </mxGeometry>
        </mxCell>
        <mxCell id="zNrFlMbsqUfdK7DRBu00-9" value="CreateUser" style="shape=umlLifeline;perimeter=lifelinePerimeter;whiteSpace=wrap;html=1;container=1;collapsible=0;recursiveResize=0;outlineConnect=0;" vertex="1" parent="1">
          <mxGeometry x="480" y="50" width="175" height="670" as="geometry" />
        </mxCell>
        <mxCell id="zNrFlMbsqUfdK7DRBu00-46" value="save(user)" style="html=1;verticalAlign=bottom;endArrow=block;" edge="1" parent="zNrFlMbsqUfdK7DRBu00-9">
          <mxGeometry width="80" relative="1" as="geometry">
            <mxPoint x="103" y="540" as="sourcePoint" />
            <mxPoint x="250" y="540" as="targetPoint" />
          </mxGeometry>
        </mxCell>
        <mxCell id="zNrFlMbsqUfdK7DRBu00-11" value="DAO" style="shape=umlLifeline;perimeter=lifelinePerimeter;whiteSpace=wrap;html=1;container=1;collapsible=0;recursiveResize=0;outlineConnect=0;" vertex="1" parent="1">
          <mxGeometry x="690" y="50" width="100" height="580" as="geometry" />
        </mxCell>
        <mxCell id="zNrFlMbsqUfdK7DRBu00-12" value="" style="html=1;points=[];perimeter=orthogonalPerimeter;" vertex="1" parent="zNrFlMbsqUfdK7DRBu00-11">
          <mxGeometry x="40" y="70" width="15" height="200" as="geometry" />
        </mxCell>
        <mxCell id="zNrFlMbsqUfdK7DRBu00-43" value="" style="html=1;points=[];perimeter=orthogonalPerimeter;" vertex="1" parent="zNrFlMbsqUfdK7DRBu00-11">
          <mxGeometry x="42.5" y="500" width="10" height="80" as="geometry" />
        </mxCell>
        <mxCell id="zNrFlMbsqUfdK7DRBu00-13" style="edgeStyle=orthogonalEdgeStyle;rounded=0;orthogonalLoop=1;jettySize=auto;html=1;entryX=0.053;entryY=0.183;entryDx=0;entryDy=0;entryPerimeter=0;" edge="1" parent="1" target="zNrFlMbsqUfdK7DRBu00-12">
          <mxGeometry relative="1" as="geometry">
            <mxPoint x="352" y="160" as="sourcePoint" />
            <mxPoint x="710" y="156" as="targetPoint" />
            <Array as="points">
              <mxPoint x="352" y="157" />
            </Array>
          </mxGeometry>
        </mxCell>
        <mxCell id="zNrFlMbsqUfdK7DRBu00-14" value="findUserName(String)" style="edgeLabel;html=1;align=center;verticalAlign=middle;resizable=0;points=[];" vertex="1" connectable="0" parent="zNrFlMbsqUfdK7DRBu00-13">
          <mxGeometry x="-0.1086" y="1" relative="1" as="geometry">
            <mxPoint x="11" y="-11" as="offset" />
          </mxGeometry>
        </mxCell>
        <mxCell id="zNrFlMbsqUfdK7DRBu00-15" value="send request" style="text;html=1;align=center;verticalAlign=middle;resizable=0;points=[];autosize=1;strokeColor=none;" vertex="1" parent="1">
          <mxGeometry x="30" y="100" width="90" height="20" as="geometry" />
        </mxCell>
        <mxCell id="zNrFlMbsqUfdK7DRBu00-21" style="edgeStyle=orthogonalEdgeStyle;rounded=0;orthogonalLoop=1;jettySize=auto;html=1;exitX=-0.267;exitY=0.775;exitDx=0;exitDy=0;exitPerimeter=0;dashed=1;fillColor=#d5e8d4;strokeColor=#82b366;" edge="1" parent="1" source="zNrFlMbsqUfdK7DRBu00-12" target="3nuBFxr9cyL0pnOWT2aG-5">
          <mxGeometry relative="1" as="geometry">
            <Array as="points">
              <mxPoint x="706" y="280" />
            </Array>
          </mxGeometry>
        </mxCell>
        <mxCell id="zNrFlMbsqUfdK7DRBu00-22" value="Return the user" style="edgeLabel;html=1;align=center;verticalAlign=middle;resizable=0;points=[];" vertex="1" connectable="0" parent="zNrFlMbsqUfdK7DRBu00-21">
          <mxGeometry x="-0.3018" y="-3" relative="1" as="geometry">
            <mxPoint x="-35" y="-7" as="offset" />
          </mxGeometry>
        </mxCell>
        <mxCell id="zNrFlMbsqUfdK7DRBu00-25" style="edgeStyle=orthogonalEdgeStyle;rounded=0;orthogonalLoop=1;jettySize=auto;html=1;dashed=1;" edge="1" parent="1" source="3nuBFxr9cyL0pnOWT2aG-6" target="3nuBFxr9cyL0pnOWT2aG-1">
          <mxGeometry relative="1" as="geometry">
            <Array as="points">
              <mxPoint x="260" y="370" />
              <mxPoint x="260" y="370" />
            </Array>
          </mxGeometry>
        </mxCell>
        <mxCell id="zNrFlMbsqUfdK7DRBu00-26" value="Return 200 and token&amp;nbsp;" style="edgeLabel;html=1;align=center;verticalAlign=middle;resizable=0;points=[];" vertex="1" connectable="0" parent="zNrFlMbsqUfdK7DRBu00-25">
          <mxGeometry x="-0.2192" y="-1" relative="1" as="geometry">
            <mxPoint x="-19" y="-9" as="offset" />
          </mxGeometry>
        </mxCell>
        <mxCell id="zNrFlMbsqUfdK7DRBu00-27" style="edgeStyle=orthogonalEdgeStyle;rounded=0;orthogonalLoop=1;jettySize=auto;html=1;" edge="1" parent="1" source="3nuBFxr9cyL0pnOWT2aG-2">
          <mxGeometry relative="1" as="geometry">
            <mxPoint x="340" y="440" as="targetPoint" />
            <Array as="points">
              <mxPoint x="230" y="440" />
              <mxPoint x="230" y="440" />
            </Array>
          </mxGeometry>
        </mxCell>
        <mxCell id="zNrFlMbsqUfdK7DRBu00-29" value="Post /user" style="edgeLabel;html=1;align=center;verticalAlign=middle;resizable=0;points=[];" vertex="1" connectable="0" parent="zNrFlMbsqUfdK7DRBu00-27">
          <mxGeometry x="-0.2288" y="-1" relative="1" as="geometry">
            <mxPoint x="15" y="-11" as="offset" />
          </mxGeometry>
        </mxCell>
        <mxCell id="zNrFlMbsqUfdK7DRBu00-49" style="edgeStyle=orthogonalEdgeStyle;rounded=0;orthogonalLoop=1;jettySize=auto;html=1;dashed=1;fillColor=#d5e8d4;strokeColor=#82b366;" edge="1" parent="1" source="zNrFlMbsqUfdK7DRBu00-28">
          <mxGeometry relative="1" as="geometry">
            <mxPoint x="140" y="660" as="targetPoint" />
            <Array as="points">
              <mxPoint x="388" y="650" />
              <mxPoint x="388" y="660" />
            </Array>
          </mxGeometry>
        </mxCell>
        <mxCell id="zNrFlMbsqUfdK7DRBu00-28" value="" style="html=1;points=[];perimeter=orthogonalPerimeter;" vertex="1" parent="1">
          <mxGeometry x="570" y="460" width="10" height="210" as="geometry" />
        </mxCell>
        <mxCell id="zNrFlMbsqUfdK7DRBu00-30" style="edgeStyle=orthogonalEdgeStyle;rounded=0;orthogonalLoop=1;jettySize=auto;html=1;" edge="1" parent="1">
          <mxGeometry relative="1" as="geometry">
            <mxPoint x="350" y="460" as="sourcePoint" />
            <mxPoint x="350" y="480" as="targetPoint" />
            <Array as="points">
              <mxPoint x="370" y="452" />
              <mxPoint x="370" y="480" />
            </Array>
          </mxGeometry>
        </mxCell>
        <mxCell id="zNrFlMbsqUfdK7DRBu00-32" value="Valida token" style="edgeLabel;html=1;align=center;verticalAlign=middle;resizable=0;points=[];" vertex="1" connectable="0" parent="zNrFlMbsqUfdK7DRBu00-30">
          <mxGeometry x="0.3684" y="1" relative="1" as="geometry">
            <mxPoint x="29" y="-6" as="offset" />
          </mxGeometry>
        </mxCell>
        <mxCell id="zNrFlMbsqUfdK7DRBu00-34" value="Post /user" style="edgeLabel;html=1;align=center;verticalAlign=middle;resizable=0;points=[];" vertex="1" connectable="0" parent="1">
          <mxGeometry x="460" y="460" as="geometry" />
        </mxCell>
        <mxCell id="zNrFlMbsqUfdK7DRBu00-35" style="edgeStyle=orthogonalEdgeStyle;rounded=0;orthogonalLoop=1;jettySize=auto;html=1;dashed=1;fillColor=#f8cecc;strokeColor=#b85450;" edge="1" parent="1" source="3nuBFxr9cyL0pnOWT2aG-6" target="3nuBFxr9cyL0pnOWT2aG-1">
          <mxGeometry relative="1" as="geometry">
            <Array as="points">
              <mxPoint x="273" y="490" />
              <mxPoint x="273" y="500" />
            </Array>
          </mxGeometry>
        </mxCell>
        <mxCell id="zNrFlMbsqUfdK7DRBu00-36" value="401 if token unauthorized" style="edgeLabel;html=1;align=center;verticalAlign=middle;resizable=0;points=[];" vertex="1" connectable="0" parent="1">
          <mxGeometry x="240" y="470" as="geometry" />
        </mxCell>
        <mxCell id="zNrFlMbsqUfdK7DRBu00-37" style="edgeStyle=orthogonalEdgeStyle;rounded=0;orthogonalLoop=1;jettySize=auto;html=1;entryX=1.04;entryY=0.596;entryDx=0;entryDy=0;entryPerimeter=0;" edge="1" parent="1" source="zNrFlMbsqUfdK7DRBu00-28" target="zNrFlMbsqUfdK7DRBu00-28">
          <mxGeometry relative="1" as="geometry">
            <Array as="points">
              <mxPoint x="600" y="500" />
            </Array>
          </mxGeometry>
        </mxCell>
        <mxCell id="zNrFlMbsqUfdK7DRBu00-39" value="Validate format" style="text;html=1;align=center;verticalAlign=middle;resizable=0;points=[];autosize=1;strokeColor=none;" vertex="1" parent="1">
          <mxGeometry x="600" y="500" width="100" height="20" as="geometry" />
        </mxCell>
        <mxCell id="zNrFlMbsqUfdK7DRBu00-47" style="edgeStyle=orthogonalEdgeStyle;rounded=0;orthogonalLoop=1;jettySize=auto;html=1;dashed=1;fillColor=#d5e8d4;strokeColor=#82b366;" edge="1" parent="1" source="zNrFlMbsqUfdK7DRBu00-43">
          <mxGeometry relative="1" as="geometry">
            <mxPoint x="581" y="630" as="targetPoint" />
            <Array as="points">
              <mxPoint x="700" y="623" />
              <mxPoint x="700" y="623" />
            </Array>
          </mxGeometry>
        </mxCell>
        <mxCell id="zNrFlMbsqUfdK7DRBu00-48" value="return user with id and other data" style="edgeLabel;html=1;align=center;verticalAlign=middle;resizable=0;points=[];" vertex="1" connectable="0" parent="zNrFlMbsqUfdK7DRBu00-47">
          <mxGeometry x="0.1461" y="4" relative="1" as="geometry">
            <mxPoint x="47" y="13" as="offset" />
          </mxGeometry>
        </mxCell>
        <mxCell id="zNrFlMbsqUfdK7DRBu00-50" value="Return 201 and user" style="edgeLabel;html=1;align=center;verticalAlign=middle;resizable=0;points=[];" vertex="1" connectable="0" parent="1">
          <mxGeometry x="280" y="640" as="geometry">
            <mxPoint x="-2" y="-1" as="offset" />
          </mxGeometry>
        </mxCell>
        <mxCell id="xkVu09Cg653y5Cwfu_m5-1" value="return dataexception if not found the user" style="html=1;verticalAlign=bottom;endArrow=open;dashed=1;endSize=8;entryX=0.506;entryY=0.232;entryDx=0;entryDy=0;entryPerimeter=0;exitX=0;exitY=0.419;exitDx=0;exitDy=0;exitPerimeter=0;fillColor=#f8cecc;strokeColor=#b85450;" edge="1" parent="1" source="zNrFlMbsqUfdK7DRBu00-12" target="3nuBFxr9cyL0pnOWT2aG-5">
          <mxGeometry relative="1" as="geometry">
            <mxPoint x="460" y="205" as="sourcePoint" />
            <mxPoint x="380" y="210" as="targetPoint" />
          </mxGeometry>
        </mxCell>
        <mxCell id="xkVu09Cg653y5Cwfu_m5-2" value="return 401 unauthorized" style="html=1;verticalAlign=bottom;endArrow=open;dashed=1;endSize=8;fillColor=#f8cecc;strokeColor=#b85450;" edge="1" parent="1">
          <mxGeometry y="-10" relative="1" as="geometry">
            <mxPoint x="340" y="230" as="sourcePoint" />
            <mxPoint x="140" y="230" as="targetPoint" />
            <mxPoint as="offset" />
          </mxGeometry>
        </mxCell>
      </root>
    </mxGraphModel>
  </diagram>
  <diagram id="KBwwluKY3qfGtR2_I1FO" name="ComponentDiagram">
    <mxGraphModel dx="1038" dy="547" grid="1" gridSize="10" guides="1" tooltips="1" connect="1" arrows="1" fold="1" page="1" pageScale="1" pageWidth="827" pageHeight="1169" math="0" shadow="0">
      <root>
        <mxCell id="alw_yJdNfHo0_5639M0v-0" />
        <mxCell id="alw_yJdNfHo0_5639M0v-1" parent="alw_yJdNfHo0_5639M0v-0" />
        <mxCell id="7w2i0wjwpqYXf2EsGQp0-0" value="«Annotation»&lt;br&gt;&lt;b&gt;CreateUser&lt;/b&gt;" style="html=1;dropTarget=0;" vertex="1" parent="alw_yJdNfHo0_5639M0v-1">
          <mxGeometry x="290" y="270" width="150" height="80" as="geometry" />
        </mxCell>
        <mxCell id="7w2i0wjwpqYXf2EsGQp0-1" value="" style="shape=module;jettyWidth=8;jettyHeight=4;" vertex="1" parent="7w2i0wjwpqYXf2EsGQp0-0">
          <mxGeometry x="1" width="20" height="20" relative="1" as="geometry">
            <mxPoint x="-27" y="7" as="offset" />
          </mxGeometry>
        </mxCell>
        <mxCell id="7w2i0wjwpqYXf2EsGQp0-2" value="«Annotation»&lt;br&gt;&lt;b&gt;Authentication&lt;/b&gt;" style="html=1;dropTarget=0;" vertex="1" parent="alw_yJdNfHo0_5639M0v-1">
          <mxGeometry x="300" y="100" width="140" height="70" as="geometry" />
        </mxCell>
        <mxCell id="7w2i0wjwpqYXf2EsGQp0-3" value="" style="shape=module;jettyWidth=8;jettyHeight=4;" vertex="1" parent="7w2i0wjwpqYXf2EsGQp0-2">
          <mxGeometry x="1" width="20" height="20" relative="1" as="geometry">
            <mxPoint x="-27" y="7" as="offset" />
          </mxGeometry>
        </mxCell>
        <mxCell id="7w2i0wjwpqYXf2EsGQp0-5" style="edgeStyle=orthogonalEdgeStyle;rounded=0;orthogonalLoop=1;jettySize=auto;html=1;exitX=0.5;exitY=0.5;exitDx=0;exitDy=0;exitPerimeter=0;" edge="1" parent="alw_yJdNfHo0_5639M0v-1" source="7w2i0wjwpqYXf2EsGQp0-4">
          <mxGeometry relative="1" as="geometry">
            <mxPoint x="110" y="150" as="targetPoint" />
          </mxGeometry>
        </mxCell>
        <mxCell id="7w2i0wjwpqYXf2EsGQp0-4" value="Actor" style="shape=umlActor;verticalLabelPosition=bottom;verticalAlign=top;html=1;" vertex="1" parent="alw_yJdNfHo0_5639M0v-1">
          <mxGeometry x="120" y="90" width="30" height="60" as="geometry" />
        </mxCell>
      </root>
    </mxGraphModel>
  </diagram>
</mxfile>
